# Blender v2.79 (sub 0) OBJ File: 'ilustracion.blend'
# www.blender.org
mtllib singletree.mtl
o Cylinder
v -3.827299 0.010062 0.700215
v -3.827299 0.734812 0.771409
v -3.669384 0.010062 0.791387
v -3.731040 0.734812 0.826984
v -3.669384 0.010062 0.973732
v -3.731040 0.734812 0.938135
v -3.827299 0.010062 1.064904
v -3.827299 0.734812 0.993710
v -3.985214 0.010062 0.973732
v -3.923558 0.734812 0.938135
v -3.985214 0.010062 0.791387
v -3.923558 0.734812 0.826984
v -3.925809 0.723450 0.551882
v -4.092340 1.230259 0.517045
v -3.898565 1.564263 0.835690
v -3.728475 0.551612 0.959267
v -3.815247 0.807911 1.323402
v -3.408975 0.807913 1.030739
v -4.219378 0.737476 0.897478
v -3.561768 0.807912 0.553915
v -3.315232 1.083518 0.897478
v -3.659540 1.083518 1.371378
v -4.238262 1.228215 1.146138
v -4.311808 1.032357 0.897478
v -3.660267 1.136752 0.425814
v -3.782670 1.381556 1.280211
v -3.407661 1.378399 0.897478
vn 0.4982 0.0848 -0.8629
vn 0.9964 0.0848 0.0000
vn 0.4982 0.0848 0.8629
vn -0.4982 0.0848 0.8629
vn 0.0000 1.0000 -0.0000
vn -0.9964 0.0848 0.0000
vn -0.4982 0.0848 -0.8629
vn 0.0000 -1.0000 0.0000
vn -0.3185 -0.9188 -0.2333
vn -0.7364 -0.2842 -0.6140
vn 0.8090 0.0090 0.5878
vn -0.3543 0.0375 0.9344
vn -0.2340 -0.1430 -0.9617
vn 0.8077 0.0123 -0.5895
vn -0.3997 0.8065 0.4357
vn -0.7690 0.6144 -0.1764
vn -0.0030 0.6912 -0.7227
vn 0.3528 0.7425 -0.5694
vn 0.3062 0.9059 0.2925
vn 0.7948 0.2491 -0.5533
vn -0.8170 0.5452 -0.1877
vn -0.3255 0.1510 0.9334
vn 0.6383 0.4539 0.6217
vn 0.7842 0.2458 0.5698
vn 0.0841 -0.3397 -0.9368
vn -0.7795 -0.2443 -0.5768
vn -0.8474 -0.2656 0.4598
vn -0.6444 -0.3652 0.6718
vn 0.5287 -0.4264 0.7339
vn 0.8614 -0.4264 -0.2760
vn 0.2029 -0.8632 -0.4624
vn -0.3631 -0.8005 0.4769
vn 0.6399 -0.7406 -0.2051
vn 0.4227 -0.6906 0.5868
usemtl brown
s off
f 1//1 2//1 4//1 3//1
f 3//2 4//2 6//2 5//2
f 5//3 6//3 8//3 7//3
f 7//4 8//4 10//4 9//4
f 4//5 2//5 12//5 10//5 8//5 6//5
f 9//6 10//6 12//6 11//6
f 11//7 12//7 2//7 1//7
f 1//8 3//8 5//8 7//8 9//8 11//8
usemtl leaves
f 16//9 19//9 13//9
f 13//10 19//10 14//10
f 18//11 21//11 22//11
f 17//12 22//12 23//12
f 13//13 14//13 25//13
f 20//14 25//14 21//14
f 23//15 26//15 15//15
f 14//16 23//16 15//16
f 25//17 14//17 15//17
f 27//18 25//18 15//18
f 26//19 27//19 15//19
f 21//20 25//20 27//20
f 24//21 23//21 14//21
f 23//22 22//22 26//22
f 22//23 27//23 26//23
f 22//24 21//24 27//24
f 20//25 13//25 25//25
f 14//26 19//26 24//26
f 24//27 19//27 23//27
f 19//28 17//28 23//28
f 17//29 18//29 22//29
f 18//30 20//30 21//30
f 16//31 13//31 20//31
f 16//32 17//32 19//32
f 18//33 16//33 20//33
f 16//34 18//34 17//34
